# xmcd CD database file
#
# Track frame offsets:
#	150
#	24851
#	42239
#	61087
#
# Disc length: 1069 seconds
#
# Revision: 0
# Processed by: cddbd v1.5.1PL0 Copyright (c) Steve Scherf et al.
# Submitted via: CDex 1.50
#
DISCID=24042b04
DTITLE=Lunar Machine - Cres - はいてない (HIgh TEnshion NIght!!)
DYEAR=2005
DGENRE=Game
TTITLE0=恋色マスタースパーク (Ultra Dance Edition)
TTITLE1=少女綺想曲 (Moonlight Step Mix)
TTITLE2=狂気の瞳 (Happy Night Mix)
TTITLE3=千年幻想郷 (Lunatic Beat Mix)
EXTD=YEAR: 2005
EXTT0=
EXTT1=
EXTT2=
EXTT3=
PLAYORDER=
